# xmcd
#
# Track frame offsets:
#	150
#	20936
#	51193
#	76896
#	105374
#	130908
#	152291
#	173362
#	190506
#	213182
#	240799
#	272259
#	293546
#
# Disc length: 4256
#
# Revision: 2
# Processed by: cddbd v1.5.1PL0 Copyright (c) Steve Scherf et al.
# Submitted via: audiograbber 1.80.04
# Normalized: r1:DSETVAR1
#
DISCID=8f109e0d
DTITLE=Various Artist - Charme Classic's (R&B) Vol.2
DYEAR=1900
DGENRE=
TTITLE0=Nu Shooz - Should I Say Yes?
TTITLE1=J.T. Taylor - Long Hot Summer Night
TTITLE2=Surface - Happy "Remix" by D. Contey
TTITLE3=Brotherhood Creed BHC - Helluva
TTITLE4=Massivo - Loving You
TTITLE5=Kenny Thomas - Thinking About Your Love
TTITLE6=Guy - I Like
TTITLE7=Tyler Collins - Girls Nite Out
TTITLE8=Color Me Badd - I Wanna Sex You Up
TTITLE9=R. Kelly - She's Got That Vibe
TTITLE10=Shawn Christopher - Thinking About The Way
TTITLE11=Lisa - Lisa and Cult Jam
TTITLE12=Blue Magil - See Through
EXTD=
EXTT0=
EXTT1=
EXTT2=
EXTT3=
EXTT4=
EXTT5=
EXTT6=
EXTT7=
EXTT8=
EXTT9=
EXTT10=
EXTT11=
EXTT12=
PLAYORDER=
